<svg width="500" height="500" viewBox="0 0 500 500" fill="none" xmlns="http://www.w3.org/2000/svg">
<rect width="500" height="500" rx="250" fill="url(#paint0_linear_3401_7580)"/>
<path d="M101.612 287.19C98.1018 287.202 94.6604 286.216 91.6875 284.345C88.7145 282.474 86.3321 279.796 84.817 276.622C83.3019 273.448 82.7163 269.908 83.1282 266.413C83.5401 262.919 84.9326 259.613 87.1439 256.88L270.774 67.2096C272.152 65.6157 274.029 64.5385 276.097 64.155C278.166 63.7715 280.303 64.1044 282.158 65.0991C284.013 66.0938 285.476 67.6912 286.306 69.629C287.136 71.5668 287.284 73.73 286.726 75.7634L251.113 187.706C250.063 190.524 249.71 193.555 250.085 196.539C250.46 199.523 251.552 202.372 253.266 204.84C254.981 207.309 257.267 209.323 259.929 210.711C262.59 212.099 265.548 212.819 268.549 212.81H398.388C401.898 212.798 405.34 213.784 408.313 215.655C411.285 217.526 413.668 220.204 415.183 223.378C416.698 226.552 417.284 230.092 416.872 233.587C416.46 237.081 415.067 240.387 412.856 243.12L229.226 432.79C227.848 434.384 225.971 435.461 223.903 435.845C221.834 436.228 219.697 435.896 217.842 434.901C215.987 433.906 214.524 432.309 213.694 430.371C212.864 428.433 212.716 426.27 213.274 424.237L248.887 312.294C249.937 309.476 250.29 306.445 249.915 303.461C249.54 300.477 248.448 297.628 246.734 295.16C245.019 292.691 242.733 290.677 240.071 289.289C237.41 287.901 234.452 287.181 231.451 287.19H101.612Z" stroke="white" stroke-width="27" stroke-linecap="round" stroke-linejoin="round"/>
<defs>
<linearGradient id="paint0_linear_3401_7580" x1="0.0449612" y1="250.001" x2="499.955" y2="250.001" gradientUnits="userSpaceOnUse">
<stop stop-color="#346BDC"/>
<stop offset="1" stop-color="#3E8CB2"/>
</linearGradient>
</defs>
</svg>
